<svg id="Layer_1" data-name="Layer 1" xmlns="http://www.w3.org/2000/svg" viewBox="0 0 440.12 151.54"><defs><style>.cls-1,.cls-2{fill:#fff;}.cls-2{font-size:63.51px;stroke:#fff;stroke-miterlimit:10;stroke-width:0.25px;font-family:Asenine;letter-spacing:0.04em;}.cls-3{letter-spacing:0.02em;}</style></defs><path class="cls-1" d="M17,78.23a45,45,0,0,1,9.51-28.74,33.69,33.69,0,0,1,19-12.3,33,33,0,0,1,7.17-1.06A26.18,26.18,0,0,1,66.2,39.41a31,31,0,0,1,5.88,4.23,1.29,1.29,0,0,1,.31.45.36.36,0,0,1-.12.3,4.7,4.7,0,0,1-.92.09c-2.29-.11-4.59,0-6.88,0a48.05,48.05,0,0,0-5.37.5,50.72,50.72,0,0,0-8.52,1.92,45.33,45.33,0,0,0-12,5.88,34.12,34.12,0,0,0-7.35,6.79,25.7,25.7,0,0,0-5.5,13.22,22.5,22.5,0,0,0,3.17,14.82,36.51,36.51,0,0,0,3.88,5.21,56.94,56.94,0,0,0,8.29,7.46,6.36,6.36,0,0,0,1.46.82,19.16,19.16,0,0,1,8,6.22c.57.73,1.12,1.49,1.63,2.26A5.66,5.66,0,0,0,56,112a15.46,15.46,0,0,0,8.94-.89,30.82,30.82,0,0,0,3-1.45A46.87,46.87,0,0,1,77,105.85c2.14-.62,4.31-1.12,6.48-1.65,3.85-1,7.73-1.76,11.63-2.49,2.55-.48,5.13-.87,7.7-1.27,2.14-.34,4.29-.67,6.44-1,1.47-.2,3-.34,4.43-.5,1.79-.2,3.58-.41,5.36-.59.62-.07,1.24-.07,1.86-.09,0,0,.09,0,.13.07s-.14.21-.24.25a3,3,0,0,1-.71.21,57.16,57.16,0,0,0-9.87,2.6c-2.81,1-5.53,2.18-8.3,3.27-3,1.18-5.92,2.54-8.94,3.68a96.51,96.51,0,0,1-14.24,4.2,56.17,56.17,0,0,1-6.06,1s-.1,0-.14.1,0,.18.15.2a27.64,27.64,0,0,0,5.38-.13A103.64,103.64,0,0,0,96,109.6q8.34-2.58,16.5-5.71c1.68-.64,3.34-1.33,5-2a107.62,107.62,0,0,1,15.76-5,86.84,86.84,0,0,1,9.88-1.72,88.63,88.63,0,0,1,8.91-.58,61.83,61.83,0,0,1,8.91.58c1.16.17,2.33.31,3.5.49a5.38,5.38,0,0,1,1.75.49c.12.06.12.1,0,.14s-.11.09-.16.08c-.81,0-1.62-.06-2.42-.16a38,38,0,0,0-7.61-.07c-.56,0-1.12.12-1.68.12a37.83,37.83,0,0,0-5,.51c-3.43.49-6.84,1.17-10.21,2-5.48,1.35-10.86,3-16.18,4.88-8.49,3-16.75,6.51-24.91,10.26-.62.29-1.21.63-1.81,1a90.23,90.23,0,0,1-17.66,7.32,86.31,86.31,0,0,1-11.23,2.51c-2.21.34-4.42.63-6.65.78-.25,0-.49,0-.74,0a42.49,42.49,0,0,1-19.49-4.8,43.73,43.73,0,0,1-8.12-5.56,41.5,41.5,0,0,1-10.15-13,45,45,0,0,1-3.54-9.77,55.26,55.26,0,0,1-1.58-11.22C17.06,80.16,17,79.11,17,78.23Z"/><path class="cls-1" d="M46.41,84.24a3.15,3.15,0,0,0,0-1.64,15.52,15.52,0,0,1-.34-4.24A15,15,0,0,1,47.75,72a19.23,19.23,0,0,1,3.83-5.21,15,15,0,0,1,1.85-1.53,9.32,9.32,0,0,1,7.43-1.42,16.34,16.34,0,0,1,3.35,1.07,30.87,30.87,0,0,1,4.25,2.26c.2.13.42.27.45.55l0,0a1.3,1.3,0,0,1-1.07-.13A19.68,19.68,0,0,0,64,66.34a13.25,13.25,0,0,0-6.07.17,7.17,7.17,0,0,0-4.6,3.78,10.91,10.91,0,0,0-1.16,5.94,7.17,7.17,0,0,0,2.45,4.86,11,11,0,0,0,4.89,2.54c.1,0,.23,0,.34-.09a.31.31,0,0,0,0-.17c-.22-.3-.43-.6-.67-.88a11.67,11.67,0,0,1-2.48-6.87,19.46,19.46,0,0,1,.52-5.16c.1-.49.24-1,.36-1.44.06-.2.32-.45.37-.37a.6.6,0,0,1,.14.29,37.55,37.55,0,0,0,.77,5.7,19.24,19.24,0,0,0,.73,2.49,6.28,6.28,0,0,0,.78,1.47,2.34,2.34,0,0,0,3.11.82,6.43,6.43,0,0,0,1.87-1.2c.68-.64,1.38-1.26,2-2,.86-1,1.67-2,2.46-3a10.68,10.68,0,0,0,1.74-3.47,9.46,9.46,0,0,0-.16-5.67,15.58,15.58,0,0,0-2-4,26.24,26.24,0,0,0-5.58-5.94c-.44-.34-.9-.66-1.32-1-.64-.54-.58-.61.1-1.07a7.42,7.42,0,0,1,6.92-.79,12.12,12.12,0,0,1,4,2.34,25.27,25.27,0,0,1,5.27,6.21c.72,1.23,1.39,2.49,2.09,3.73a5.64,5.64,0,0,0,.5.77c.05.05.23,0,.33,0a.75.75,0,0,0,.28-.23A9.56,9.56,0,0,0,84,57c-.09-.73-.15-1.48-.21-2.22a1,1,0,0,1,.25-.68l0,0c.23.29.44.59.69.87a40.64,40.64,0,0,1,3.51,4.56A18.29,18.29,0,0,1,91,66.86,10.55,10.55,0,0,1,91,70.74a57,57,0,0,1-6.22,16.65A30.94,30.94,0,0,1,78,95.68a24.17,24.17,0,0,1-6.64,4,36.42,36.42,0,0,1-4.75,1.62,12.84,12.84,0,0,1-3.85.54,9.14,9.14,0,0,1-1.28-.16,4.63,4.63,0,0,1-3.76-3.45,1.45,1.45,0,0,1-.12-.35A3.67,3.67,0,0,0,56,95.49a7.52,7.52,0,0,0-3.65-1.74,17.16,17.16,0,0,1-13.18-12,18,18,0,0,1-.68-3.84,12.77,12.77,0,0,1,.87-5.47,19.12,19.12,0,0,1,6.36-8.54,16.05,16.05,0,0,1,6.21-2.81c.11,0,.24,0,.36.06-.06.11-.09.25-.18.31-.5.38-1,.72-1.5,1.1a16.67,16.67,0,0,0-3.74,3.85A17,17,0,0,0,44,74a12.87,12.87,0,0,0,.5,5.51,24.68,24.68,0,0,0,1.46,3.62c.19.39.36.78.53,1.17-.06-.16,0-.19.08-.09Z"/><text class="cls-2" transform="translate(103.53 85.81) scale(0.99 1)">OKEANOS-<tspan class="cls-3" x="242.76" y="0">U</tspan><tspan x="271.28" y="0">Ac</tspan></text></svg>